<mxfile host="app.diagrams.net" modified="2020-12-08T09:19:56.141Z" agent="5.0 (Windows NT 10.0; Win64; x64) AppleWebKit/537.36 (KHTML, like Gecko) Chrome/86.0.4240.198 Safari/537.36 OPR/72.0.3815.400 (Edition Campaign 34)" etag="cjUeR4vcVlM3OykQZe3g" version="13.11.0" type="github">
  <diagram id="C5RBs43oDa-KdzZeNtuy" name="Page-1">
    <mxGraphModel dx="2366" dy="1409" grid="0" gridSize="10" guides="1" tooltips="1" connect="1" arrows="1" fold="1" page="1" pageScale="1" pageWidth="10000" pageHeight="10000" math="0" shadow="0">
      <root>
        <mxCell id="WIyWlLk6GJQsqaUBKTNV-0" />
        <mxCell id="WIyWlLk6GJQsqaUBKTNV-1" parent="WIyWlLk6GJQsqaUBKTNV-0" />
        <mxCell id="MV_EeXbdcHk2f9CnNYqn-0" value="Üye" style="shape=table;startSize=30;container=1;collapsible=1;childLayout=tableLayout;fixedRows=1;rowLines=0;fontStyle=1;align=center;resizeLast=1;" vertex="1" parent="WIyWlLk6GJQsqaUBKTNV-1">
          <mxGeometry x="4078" y="731" width="180" height="247" as="geometry" />
        </mxCell>
        <mxCell id="MV_EeXbdcHk2f9CnNYqn-1" value="" style="shape=partialRectangle;collapsible=0;dropTarget=0;pointerEvents=0;fillColor=none;top=0;left=0;bottom=1;right=0;points=[[0,0.5],[1,0.5]];portConstraint=eastwest;" vertex="1" parent="MV_EeXbdcHk2f9CnNYqn-0">
          <mxGeometry y="30" width="180" height="30" as="geometry" />
        </mxCell>
        <mxCell id="MV_EeXbdcHk2f9CnNYqn-2" value="PK" style="shape=partialRectangle;connectable=0;fillColor=none;top=0;left=0;bottom=0;right=0;fontStyle=1;overflow=hidden;" vertex="1" parent="MV_EeXbdcHk2f9CnNYqn-1">
          <mxGeometry width="29.75" height="30" as="geometry" />
        </mxCell>
        <mxCell id="MV_EeXbdcHk2f9CnNYqn-3" value="Kişi_no" style="shape=partialRectangle;connectable=0;fillColor=none;top=0;left=0;bottom=0;right=0;align=left;spacingLeft=6;fontStyle=5;overflow=hidden;" vertex="1" parent="MV_EeXbdcHk2f9CnNYqn-1">
          <mxGeometry x="29.75" width="150.25" height="30" as="geometry" />
        </mxCell>
        <mxCell id="MV_EeXbdcHk2f9CnNYqn-4" value="" style="shape=partialRectangle;collapsible=0;dropTarget=0;pointerEvents=0;fillColor=none;top=0;left=0;bottom=0;right=0;points=[[0,0.5],[1,0.5]];portConstraint=eastwest;" vertex="1" parent="MV_EeXbdcHk2f9CnNYqn-0">
          <mxGeometry y="60" width="180" height="30" as="geometry" />
        </mxCell>
        <mxCell id="MV_EeXbdcHk2f9CnNYqn-5" value="" style="shape=partialRectangle;connectable=0;fillColor=none;top=0;left=0;bottom=0;right=0;editable=1;overflow=hidden;" vertex="1" parent="MV_EeXbdcHk2f9CnNYqn-4">
          <mxGeometry width="29.75" height="30" as="geometry" />
        </mxCell>
        <mxCell id="MV_EeXbdcHk2f9CnNYqn-6" value="adı" style="shape=partialRectangle;connectable=0;fillColor=none;top=0;left=0;bottom=0;right=0;align=left;spacingLeft=6;overflow=hidden;" vertex="1" parent="MV_EeXbdcHk2f9CnNYqn-4">
          <mxGeometry x="29.75" width="150.25" height="30" as="geometry" />
        </mxCell>
        <mxCell id="MV_EeXbdcHk2f9CnNYqn-7" value="" style="shape=partialRectangle;collapsible=0;dropTarget=0;pointerEvents=0;fillColor=none;top=0;left=0;bottom=0;right=0;points=[[0,0.5],[1,0.5]];portConstraint=eastwest;" vertex="1" parent="MV_EeXbdcHk2f9CnNYqn-0">
          <mxGeometry y="90" width="180" height="30" as="geometry" />
        </mxCell>
        <mxCell id="MV_EeXbdcHk2f9CnNYqn-8" value="" style="shape=partialRectangle;connectable=0;fillColor=none;top=0;left=0;bottom=0;right=0;editable=1;overflow=hidden;" vertex="1" parent="MV_EeXbdcHk2f9CnNYqn-7">
          <mxGeometry width="29.75" height="30" as="geometry" />
        </mxCell>
        <mxCell id="MV_EeXbdcHk2f9CnNYqn-9" value="soyadı" style="shape=partialRectangle;connectable=0;fillColor=none;top=0;left=0;bottom=0;right=0;align=left;spacingLeft=6;overflow=hidden;" vertex="1" parent="MV_EeXbdcHk2f9CnNYqn-7">
          <mxGeometry x="29.75" width="150.25" height="30" as="geometry" />
        </mxCell>
        <mxCell id="MV_EeXbdcHk2f9CnNYqn-10" value="" style="shape=partialRectangle;collapsible=0;dropTarget=0;pointerEvents=0;fillColor=none;top=0;left=0;bottom=0;right=0;points=[[0,0.5],[1,0.5]];portConstraint=eastwest;" vertex="1" parent="MV_EeXbdcHk2f9CnNYqn-0">
          <mxGeometry y="120" width="180" height="23" as="geometry" />
        </mxCell>
        <mxCell id="MV_EeXbdcHk2f9CnNYqn-11" value="FK" style="shape=partialRectangle;connectable=0;fillColor=none;top=0;left=0;bottom=0;right=0;editable=1;overflow=hidden;" vertex="1" parent="MV_EeXbdcHk2f9CnNYqn-10">
          <mxGeometry width="29.75" height="23" as="geometry" />
        </mxCell>
        <mxCell id="MV_EeXbdcHk2f9CnNYqn-12" value="iletişim_no" style="shape=partialRectangle;connectable=0;fillColor=none;top=0;left=0;bottom=0;right=0;align=left;spacingLeft=6;overflow=hidden;" vertex="1" parent="MV_EeXbdcHk2f9CnNYqn-10">
          <mxGeometry x="29.75" width="150.25" height="23" as="geometry" />
        </mxCell>
        <mxCell id="MV_EeXbdcHk2f9CnNYqn-13" value="iletişim_bilgisi" style="shape=table;startSize=30;container=1;collapsible=1;childLayout=tableLayout;fixedRows=1;rowLines=0;fontStyle=1;align=center;resizeLast=1;" vertex="1" parent="WIyWlLk6GJQsqaUBKTNV-1">
          <mxGeometry x="4321" y="497" width="180" height="160" as="geometry" />
        </mxCell>
        <mxCell id="MV_EeXbdcHk2f9CnNYqn-14" value="" style="shape=partialRectangle;collapsible=0;dropTarget=0;pointerEvents=0;fillColor=none;top=0;left=0;bottom=1;right=0;points=[[0,0.5],[1,0.5]];portConstraint=eastwest;" vertex="1" parent="MV_EeXbdcHk2f9CnNYqn-13">
          <mxGeometry y="30" width="180" height="30" as="geometry" />
        </mxCell>
        <mxCell id="MV_EeXbdcHk2f9CnNYqn-15" value="PK" style="shape=partialRectangle;connectable=0;fillColor=none;top=0;left=0;bottom=0;right=0;fontStyle=1;overflow=hidden;" vertex="1" parent="MV_EeXbdcHk2f9CnNYqn-14">
          <mxGeometry width="30" height="30" as="geometry" />
        </mxCell>
        <mxCell id="MV_EeXbdcHk2f9CnNYqn-16" value="İletisim_no" style="shape=partialRectangle;connectable=0;fillColor=none;top=0;left=0;bottom=0;right=0;align=left;spacingLeft=6;fontStyle=5;overflow=hidden;" vertex="1" parent="MV_EeXbdcHk2f9CnNYqn-14">
          <mxGeometry x="30" width="150" height="30" as="geometry" />
        </mxCell>
        <mxCell id="MV_EeXbdcHk2f9CnNYqn-17" value="" style="shape=partialRectangle;collapsible=0;dropTarget=0;pointerEvents=0;fillColor=none;top=0;left=0;bottom=0;right=0;points=[[0,0.5],[1,0.5]];portConstraint=eastwest;" vertex="1" parent="MV_EeXbdcHk2f9CnNYqn-13">
          <mxGeometry y="60" width="180" height="30" as="geometry" />
        </mxCell>
        <mxCell id="MV_EeXbdcHk2f9CnNYqn-18" value="" style="shape=partialRectangle;connectable=0;fillColor=none;top=0;left=0;bottom=0;right=0;editable=1;overflow=hidden;" vertex="1" parent="MV_EeXbdcHk2f9CnNYqn-17">
          <mxGeometry width="30" height="30" as="geometry" />
        </mxCell>
        <mxCell id="MV_EeXbdcHk2f9CnNYqn-19" value="E-posta" style="shape=partialRectangle;connectable=0;fillColor=none;top=0;left=0;bottom=0;right=0;align=left;spacingLeft=6;overflow=hidden;" vertex="1" parent="MV_EeXbdcHk2f9CnNYqn-17">
          <mxGeometry x="30" width="150" height="30" as="geometry" />
        </mxCell>
        <mxCell id="MV_EeXbdcHk2f9CnNYqn-20" value="" style="shape=partialRectangle;collapsible=0;dropTarget=0;pointerEvents=0;fillColor=none;top=0;left=0;bottom=0;right=0;points=[[0,0.5],[1,0.5]];portConstraint=eastwest;" vertex="1" parent="MV_EeXbdcHk2f9CnNYqn-13">
          <mxGeometry y="90" width="180" height="30" as="geometry" />
        </mxCell>
        <mxCell id="MV_EeXbdcHk2f9CnNYqn-21" value="" style="shape=partialRectangle;connectable=0;fillColor=none;top=0;left=0;bottom=0;right=0;editable=1;overflow=hidden;" vertex="1" parent="MV_EeXbdcHk2f9CnNYqn-20">
          <mxGeometry width="30" height="30" as="geometry" />
        </mxCell>
        <mxCell id="MV_EeXbdcHk2f9CnNYqn-22" value="Telefon no" style="shape=partialRectangle;connectable=0;fillColor=none;top=0;left=0;bottom=0;right=0;align=left;spacingLeft=6;overflow=hidden;" vertex="1" parent="MV_EeXbdcHk2f9CnNYqn-20">
          <mxGeometry x="30" width="150" height="30" as="geometry" />
        </mxCell>
        <mxCell id="MV_EeXbdcHk2f9CnNYqn-23" value="" style="shape=partialRectangle;collapsible=0;dropTarget=0;pointerEvents=0;fillColor=none;top=0;left=0;bottom=0;right=0;points=[[0,0.5],[1,0.5]];portConstraint=eastwest;" vertex="1" parent="MV_EeXbdcHk2f9CnNYqn-13">
          <mxGeometry y="120" width="180" height="30" as="geometry" />
        </mxCell>
        <mxCell id="MV_EeXbdcHk2f9CnNYqn-24" value="" style="shape=partialRectangle;connectable=0;fillColor=none;top=0;left=0;bottom=0;right=0;editable=1;overflow=hidden;" vertex="1" parent="MV_EeXbdcHk2f9CnNYqn-23">
          <mxGeometry width="30" height="30" as="geometry" />
        </mxCell>
        <mxCell id="MV_EeXbdcHk2f9CnNYqn-25" value="" style="shape=partialRectangle;connectable=0;fillColor=none;top=0;left=0;bottom=0;right=0;align=left;spacingLeft=6;overflow=hidden;" vertex="1" parent="MV_EeXbdcHk2f9CnNYqn-23">
          <mxGeometry x="30" width="150" height="30" as="geometry" />
        </mxCell>
        <mxCell id="MV_EeXbdcHk2f9CnNYqn-26" value="" style="edgeStyle=entityRelationEdgeStyle;fontSize=12;html=1;endArrow=ERmandOne;startArrow=ERmandOne;entryX=0;entryY=0.5;entryDx=0;entryDy=0;exitX=1;exitY=0.5;exitDx=0;exitDy=0;" edge="1" parent="WIyWlLk6GJQsqaUBKTNV-1" source="MV_EeXbdcHk2f9CnNYqn-10" target="MV_EeXbdcHk2f9CnNYqn-14">
          <mxGeometry width="100" height="100" relative="1" as="geometry">
            <mxPoint x="4230" y="989" as="sourcePoint" />
            <mxPoint x="4330" y="889" as="targetPoint" />
          </mxGeometry>
        </mxCell>
        <mxCell id="MV_EeXbdcHk2f9CnNYqn-31" value="ÖdemeBilgileri" style="shape=table;startSize=30;container=1;collapsible=1;childLayout=tableLayout;fixedRows=1;rowLines=0;fontStyle=1;align=center;resizeLast=1;" vertex="1" parent="WIyWlLk6GJQsqaUBKTNV-1">
          <mxGeometry x="3804" y="505" width="180" height="160" as="geometry" />
        </mxCell>
        <mxCell id="MV_EeXbdcHk2f9CnNYqn-32" value="" style="shape=partialRectangle;collapsible=0;dropTarget=0;pointerEvents=0;fillColor=none;top=0;left=0;bottom=1;right=0;points=[[0,0.5],[1,0.5]];portConstraint=eastwest;" vertex="1" parent="MV_EeXbdcHk2f9CnNYqn-31">
          <mxGeometry y="30" width="180" height="30" as="geometry" />
        </mxCell>
        <mxCell id="MV_EeXbdcHk2f9CnNYqn-33" value="PK" style="shape=partialRectangle;connectable=0;fillColor=none;top=0;left=0;bottom=0;right=0;fontStyle=1;overflow=hidden;" vertex="1" parent="MV_EeXbdcHk2f9CnNYqn-32">
          <mxGeometry width="30" height="30" as="geometry" />
        </mxCell>
        <mxCell id="MV_EeXbdcHk2f9CnNYqn-34" value="Cüzdan_no" style="shape=partialRectangle;connectable=0;fillColor=none;top=0;left=0;bottom=0;right=0;align=left;spacingLeft=6;fontStyle=5;overflow=hidden;" vertex="1" parent="MV_EeXbdcHk2f9CnNYqn-32">
          <mxGeometry x="30" width="150" height="30" as="geometry" />
        </mxCell>
        <mxCell id="MV_EeXbdcHk2f9CnNYqn-35" value="" style="shape=partialRectangle;collapsible=0;dropTarget=0;pointerEvents=0;fillColor=none;top=0;left=0;bottom=0;right=0;points=[[0,0.5],[1,0.5]];portConstraint=eastwest;" vertex="1" parent="MV_EeXbdcHk2f9CnNYqn-31">
          <mxGeometry y="60" width="180" height="30" as="geometry" />
        </mxCell>
        <mxCell id="MV_EeXbdcHk2f9CnNYqn-36" value="" style="shape=partialRectangle;connectable=0;fillColor=none;top=0;left=0;bottom=0;right=0;editable=1;overflow=hidden;" vertex="1" parent="MV_EeXbdcHk2f9CnNYqn-35">
          <mxGeometry width="30" height="30" as="geometry" />
        </mxCell>
        <mxCell id="MV_EeXbdcHk2f9CnNYqn-37" value="kartno" style="shape=partialRectangle;connectable=0;fillColor=none;top=0;left=0;bottom=0;right=0;align=left;spacingLeft=6;overflow=hidden;" vertex="1" parent="MV_EeXbdcHk2f9CnNYqn-35">
          <mxGeometry x="30" width="150" height="30" as="geometry" />
        </mxCell>
        <mxCell id="MV_EeXbdcHk2f9CnNYqn-38" value="" style="shape=partialRectangle;collapsible=0;dropTarget=0;pointerEvents=0;fillColor=none;top=0;left=0;bottom=0;right=0;points=[[0,0.5],[1,0.5]];portConstraint=eastwest;" vertex="1" parent="MV_EeXbdcHk2f9CnNYqn-31">
          <mxGeometry y="90" width="180" height="30" as="geometry" />
        </mxCell>
        <mxCell id="MV_EeXbdcHk2f9CnNYqn-39" value="" style="shape=partialRectangle;connectable=0;fillColor=none;top=0;left=0;bottom=0;right=0;editable=1;overflow=hidden;" vertex="1" parent="MV_EeXbdcHk2f9CnNYqn-38">
          <mxGeometry width="30" height="30" as="geometry" />
        </mxCell>
        <mxCell id="MV_EeXbdcHk2f9CnNYqn-40" value="iban" style="shape=partialRectangle;connectable=0;fillColor=none;top=0;left=0;bottom=0;right=0;align=left;spacingLeft=6;overflow=hidden;" vertex="1" parent="MV_EeXbdcHk2f9CnNYqn-38">
          <mxGeometry x="30" width="150" height="30" as="geometry" />
        </mxCell>
        <mxCell id="MV_EeXbdcHk2f9CnNYqn-41" value="" style="shape=partialRectangle;collapsible=0;dropTarget=0;pointerEvents=0;fillColor=none;top=0;left=0;bottom=0;right=0;points=[[0,0.5],[1,0.5]];portConstraint=eastwest;" vertex="1" parent="MV_EeXbdcHk2f9CnNYqn-31">
          <mxGeometry y="120" width="180" height="30" as="geometry" />
        </mxCell>
        <mxCell id="MV_EeXbdcHk2f9CnNYqn-42" value="" style="shape=partialRectangle;connectable=0;fillColor=none;top=0;left=0;bottom=0;right=0;editable=1;overflow=hidden;" vertex="1" parent="MV_EeXbdcHk2f9CnNYqn-41">
          <mxGeometry width="30" height="30" as="geometry" />
        </mxCell>
        <mxCell id="MV_EeXbdcHk2f9CnNYqn-43" value="cvc" style="shape=partialRectangle;connectable=0;fillColor=none;top=0;left=0;bottom=0;right=0;align=left;spacingLeft=6;overflow=hidden;" vertex="1" parent="MV_EeXbdcHk2f9CnNYqn-41">
          <mxGeometry x="30" width="150" height="30" as="geometry" />
        </mxCell>
        <mxCell id="MV_EeXbdcHk2f9CnNYqn-46" style="edgeStyle=orthogonalEdgeStyle;rounded=0;orthogonalLoop=1;jettySize=auto;html=1;exitX=1;exitY=0.5;exitDx=0;exitDy=0;entryX=0;entryY=0.75;entryDx=0;entryDy=0;startArrow=ERmandOne;startFill=0;endArrow=ERmandOne;endFill=0;" edge="1" parent="WIyWlLk6GJQsqaUBKTNV-1" source="MV_EeXbdcHk2f9CnNYqn-38" target="MV_EeXbdcHk2f9CnNYqn-0">
          <mxGeometry relative="1" as="geometry" />
        </mxCell>
        <mxCell id="MV_EeXbdcHk2f9CnNYqn-49" value="FK" style="text;html=1;align=center;verticalAlign=middle;resizable=0;points=[];autosize=1;" vertex="1" parent="WIyWlLk6GJQsqaUBKTNV-1">
          <mxGeometry x="4082" y="907" width="25" height="18" as="geometry" />
        </mxCell>
        <mxCell id="MV_EeXbdcHk2f9CnNYqn-50" value="CüzdanNo" style="text;html=1;align=center;verticalAlign=middle;resizable=0;points=[];autosize=1;" vertex="1" parent="WIyWlLk6GJQsqaUBKTNV-1">
          <mxGeometry x="4113" y="907" width="67" height="18" as="geometry" />
        </mxCell>
        <mxCell id="MV_EeXbdcHk2f9CnNYqn-52" value="" style="strokeWidth=2;html=1;shape=mxgraph.flowchart.annotation_2;align=left;labelPosition=right;pointerEvents=1;rotation=90;" vertex="1" parent="WIyWlLk6GJQsqaUBKTNV-1">
          <mxGeometry x="4128" y="852" width="102" height="359" as="geometry" />
        </mxCell>
        <mxCell id="MV_EeXbdcHk2f9CnNYqn-138" style="edgeStyle=orthogonalEdgeStyle;rounded=0;orthogonalLoop=1;jettySize=auto;html=1;exitX=0.75;exitY=1;exitDx=0;exitDy=0;entryX=0.75;entryY=0;entryDx=0;entryDy=0;startArrow=ERmandOne;startFill=0;endArrow=ERzeroToMany;endFill=1;" edge="1" parent="WIyWlLk6GJQsqaUBKTNV-1" source="MV_EeXbdcHk2f9CnNYqn-55" target="MV_EeXbdcHk2f9CnNYqn-109">
          <mxGeometry relative="1" as="geometry" />
        </mxCell>
        <mxCell id="MV_EeXbdcHk2f9CnNYqn-139" style="edgeStyle=orthogonalEdgeStyle;rounded=0;orthogonalLoop=1;jettySize=auto;html=1;exitX=1;exitY=1;exitDx=0;exitDy=0;entryX=0.193;entryY=0.01;entryDx=0;entryDy=0;entryPerimeter=0;startArrow=ERmandOne;startFill=0;endArrow=ERzeroToMany;endFill=1;" edge="1" parent="WIyWlLk6GJQsqaUBKTNV-1" source="MV_EeXbdcHk2f9CnNYqn-55" target="MV_EeXbdcHk2f9CnNYqn-122">
          <mxGeometry relative="1" as="geometry" />
        </mxCell>
        <mxCell id="MV_EeXbdcHk2f9CnNYqn-55" value="Yönetici" style="shape=table;startSize=30;container=1;collapsible=1;childLayout=tableLayout;fixedRows=1;rowLines=0;fontStyle=1;align=center;resizeLast=1;" vertex="1" parent="WIyWlLk6GJQsqaUBKTNV-1">
          <mxGeometry x="3892" y="1081" width="180" height="160" as="geometry" />
        </mxCell>
        <mxCell id="MV_EeXbdcHk2f9CnNYqn-56" value="" style="shape=partialRectangle;collapsible=0;dropTarget=0;pointerEvents=0;fillColor=none;top=0;left=0;bottom=1;right=0;points=[[0,0.5],[1,0.5]];portConstraint=eastwest;" vertex="1" parent="MV_EeXbdcHk2f9CnNYqn-55">
          <mxGeometry y="30" width="180" height="30" as="geometry" />
        </mxCell>
        <mxCell id="MV_EeXbdcHk2f9CnNYqn-57" value="PK" style="shape=partialRectangle;connectable=0;fillColor=none;top=0;left=0;bottom=0;right=0;fontStyle=1;overflow=hidden;" vertex="1" parent="MV_EeXbdcHk2f9CnNYqn-56">
          <mxGeometry width="30" height="30" as="geometry" />
        </mxCell>
        <mxCell id="MV_EeXbdcHk2f9CnNYqn-58" value="Yönetici_id" style="shape=partialRectangle;connectable=0;fillColor=none;top=0;left=0;bottom=0;right=0;align=left;spacingLeft=6;fontStyle=5;overflow=hidden;" vertex="1" parent="MV_EeXbdcHk2f9CnNYqn-56">
          <mxGeometry x="30" width="150" height="30" as="geometry" />
        </mxCell>
        <mxCell id="MV_EeXbdcHk2f9CnNYqn-59" value="" style="shape=partialRectangle;collapsible=0;dropTarget=0;pointerEvents=0;fillColor=none;top=0;left=0;bottom=0;right=0;points=[[0,0.5],[1,0.5]];portConstraint=eastwest;" vertex="1" parent="MV_EeXbdcHk2f9CnNYqn-55">
          <mxGeometry y="60" width="180" height="30" as="geometry" />
        </mxCell>
        <mxCell id="MV_EeXbdcHk2f9CnNYqn-60" value="" style="shape=partialRectangle;connectable=0;fillColor=none;top=0;left=0;bottom=0;right=0;editable=1;overflow=hidden;" vertex="1" parent="MV_EeXbdcHk2f9CnNYqn-59">
          <mxGeometry width="30" height="30" as="geometry" />
        </mxCell>
        <mxCell id="MV_EeXbdcHk2f9CnNYqn-61" value="Row 1" style="shape=partialRectangle;connectable=0;fillColor=none;top=0;left=0;bottom=0;right=0;align=left;spacingLeft=6;overflow=hidden;" vertex="1" parent="MV_EeXbdcHk2f9CnNYqn-59">
          <mxGeometry x="30" width="150" height="30" as="geometry" />
        </mxCell>
        <mxCell id="MV_EeXbdcHk2f9CnNYqn-62" value="" style="shape=partialRectangle;collapsible=0;dropTarget=0;pointerEvents=0;fillColor=none;top=0;left=0;bottom=0;right=0;points=[[0,0.5],[1,0.5]];portConstraint=eastwest;" vertex="1" parent="MV_EeXbdcHk2f9CnNYqn-55">
          <mxGeometry y="90" width="180" height="30" as="geometry" />
        </mxCell>
        <mxCell id="MV_EeXbdcHk2f9CnNYqn-63" value="" style="shape=partialRectangle;connectable=0;fillColor=none;top=0;left=0;bottom=0;right=0;editable=1;overflow=hidden;" vertex="1" parent="MV_EeXbdcHk2f9CnNYqn-62">
          <mxGeometry width="30" height="30" as="geometry" />
        </mxCell>
        <mxCell id="MV_EeXbdcHk2f9CnNYqn-64" value="Row 2" style="shape=partialRectangle;connectable=0;fillColor=none;top=0;left=0;bottom=0;right=0;align=left;spacingLeft=6;overflow=hidden;" vertex="1" parent="MV_EeXbdcHk2f9CnNYqn-62">
          <mxGeometry x="30" width="150" height="30" as="geometry" />
        </mxCell>
        <mxCell id="MV_EeXbdcHk2f9CnNYqn-65" value="" style="shape=partialRectangle;collapsible=0;dropTarget=0;pointerEvents=0;fillColor=none;top=0;left=0;bottom=0;right=0;points=[[0,0.5],[1,0.5]];portConstraint=eastwest;" vertex="1" parent="MV_EeXbdcHk2f9CnNYqn-55">
          <mxGeometry y="120" width="180" height="30" as="geometry" />
        </mxCell>
        <mxCell id="MV_EeXbdcHk2f9CnNYqn-66" value="" style="shape=partialRectangle;connectable=0;fillColor=none;top=0;left=0;bottom=0;right=0;editable=1;overflow=hidden;" vertex="1" parent="MV_EeXbdcHk2f9CnNYqn-65">
          <mxGeometry width="30" height="30" as="geometry" />
        </mxCell>
        <mxCell id="MV_EeXbdcHk2f9CnNYqn-67" value="Row 3" style="shape=partialRectangle;connectable=0;fillColor=none;top=0;left=0;bottom=0;right=0;align=left;spacingLeft=6;overflow=hidden;" vertex="1" parent="MV_EeXbdcHk2f9CnNYqn-65">
          <mxGeometry x="30" width="150" height="30" as="geometry" />
        </mxCell>
        <mxCell id="MV_EeXbdcHk2f9CnNYqn-68" value="Çalışan" style="shape=table;startSize=30;container=1;collapsible=1;childLayout=tableLayout;fixedRows=1;rowLines=0;fontStyle=1;align=center;resizeLast=1;" vertex="1" parent="WIyWlLk6GJQsqaUBKTNV-1">
          <mxGeometry x="4250" y="1081" width="180" height="160" as="geometry" />
        </mxCell>
        <mxCell id="MV_EeXbdcHk2f9CnNYqn-69" value="" style="shape=partialRectangle;collapsible=0;dropTarget=0;pointerEvents=0;fillColor=none;top=0;left=0;bottom=1;right=0;points=[[0,0.5],[1,0.5]];portConstraint=eastwest;" vertex="1" parent="MV_EeXbdcHk2f9CnNYqn-68">
          <mxGeometry y="30" width="180" height="30" as="geometry" />
        </mxCell>
        <mxCell id="MV_EeXbdcHk2f9CnNYqn-70" value="PK" style="shape=partialRectangle;connectable=0;fillColor=none;top=0;left=0;bottom=0;right=0;fontStyle=1;overflow=hidden;" vertex="1" parent="MV_EeXbdcHk2f9CnNYqn-69">
          <mxGeometry width="30" height="30" as="geometry" />
        </mxCell>
        <mxCell id="MV_EeXbdcHk2f9CnNYqn-71" value="Çalışan_id" style="shape=partialRectangle;connectable=0;fillColor=none;top=0;left=0;bottom=0;right=0;align=left;spacingLeft=6;fontStyle=5;overflow=hidden;" vertex="1" parent="MV_EeXbdcHk2f9CnNYqn-69">
          <mxGeometry x="30" width="150" height="30" as="geometry" />
        </mxCell>
        <mxCell id="MV_EeXbdcHk2f9CnNYqn-72" value="" style="shape=partialRectangle;collapsible=0;dropTarget=0;pointerEvents=0;fillColor=none;top=0;left=0;bottom=0;right=0;points=[[0,0.5],[1,0.5]];portConstraint=eastwest;" vertex="1" parent="MV_EeXbdcHk2f9CnNYqn-68">
          <mxGeometry y="60" width="180" height="30" as="geometry" />
        </mxCell>
        <mxCell id="MV_EeXbdcHk2f9CnNYqn-73" value="" style="shape=partialRectangle;connectable=0;fillColor=none;top=0;left=0;bottom=0;right=0;editable=1;overflow=hidden;" vertex="1" parent="MV_EeXbdcHk2f9CnNYqn-72">
          <mxGeometry width="30" height="30" as="geometry" />
        </mxCell>
        <mxCell id="MV_EeXbdcHk2f9CnNYqn-74" value="Row 1" style="shape=partialRectangle;connectable=0;fillColor=none;top=0;left=0;bottom=0;right=0;align=left;spacingLeft=6;overflow=hidden;" vertex="1" parent="MV_EeXbdcHk2f9CnNYqn-72">
          <mxGeometry x="30" width="150" height="30" as="geometry" />
        </mxCell>
        <mxCell id="MV_EeXbdcHk2f9CnNYqn-75" value="" style="shape=partialRectangle;collapsible=0;dropTarget=0;pointerEvents=0;fillColor=none;top=0;left=0;bottom=0;right=0;points=[[0,0.5],[1,0.5]];portConstraint=eastwest;" vertex="1" parent="MV_EeXbdcHk2f9CnNYqn-68">
          <mxGeometry y="90" width="180" height="30" as="geometry" />
        </mxCell>
        <mxCell id="MV_EeXbdcHk2f9CnNYqn-76" value="" style="shape=partialRectangle;connectable=0;fillColor=none;top=0;left=0;bottom=0;right=0;editable=1;overflow=hidden;" vertex="1" parent="MV_EeXbdcHk2f9CnNYqn-75">
          <mxGeometry width="30" height="30" as="geometry" />
        </mxCell>
        <mxCell id="MV_EeXbdcHk2f9CnNYqn-77" value="Row 2" style="shape=partialRectangle;connectable=0;fillColor=none;top=0;left=0;bottom=0;right=0;align=left;spacingLeft=6;overflow=hidden;" vertex="1" parent="MV_EeXbdcHk2f9CnNYqn-75">
          <mxGeometry x="30" width="150" height="30" as="geometry" />
        </mxCell>
        <mxCell id="MV_EeXbdcHk2f9CnNYqn-78" value="" style="shape=partialRectangle;collapsible=0;dropTarget=0;pointerEvents=0;fillColor=none;top=0;left=0;bottom=0;right=0;points=[[0,0.5],[1,0.5]];portConstraint=eastwest;" vertex="1" parent="MV_EeXbdcHk2f9CnNYqn-68">
          <mxGeometry y="120" width="180" height="30" as="geometry" />
        </mxCell>
        <mxCell id="MV_EeXbdcHk2f9CnNYqn-79" value="" style="shape=partialRectangle;connectable=0;fillColor=none;top=0;left=0;bottom=0;right=0;editable=1;overflow=hidden;" vertex="1" parent="MV_EeXbdcHk2f9CnNYqn-78">
          <mxGeometry width="30" height="30" as="geometry" />
        </mxCell>
        <mxCell id="MV_EeXbdcHk2f9CnNYqn-80" value="Row 3" style="shape=partialRectangle;connectable=0;fillColor=none;top=0;left=0;bottom=0;right=0;align=left;spacingLeft=6;overflow=hidden;" vertex="1" parent="MV_EeXbdcHk2f9CnNYqn-78">
          <mxGeometry x="30" width="150" height="30" as="geometry" />
        </mxCell>
        <mxCell id="MV_EeXbdcHk2f9CnNYqn-109" value="Proje" style="shape=table;startSize=30;container=1;collapsible=1;childLayout=tableLayout;fixedRows=1;rowLines=0;fontStyle=1;align=center;resizeLast=1;" vertex="1" parent="WIyWlLk6GJQsqaUBKTNV-1">
          <mxGeometry x="3718" y="1483" width="180" height="160" as="geometry" />
        </mxCell>
        <mxCell id="MV_EeXbdcHk2f9CnNYqn-110" value="" style="shape=partialRectangle;collapsible=0;dropTarget=0;pointerEvents=0;fillColor=none;top=0;left=0;bottom=1;right=0;points=[[0,0.5],[1,0.5]];portConstraint=eastwest;" vertex="1" parent="MV_EeXbdcHk2f9CnNYqn-109">
          <mxGeometry y="30" width="180" height="30" as="geometry" />
        </mxCell>
        <mxCell id="MV_EeXbdcHk2f9CnNYqn-111" value="PK" style="shape=partialRectangle;connectable=0;fillColor=none;top=0;left=0;bottom=0;right=0;fontStyle=1;overflow=hidden;" vertex="1" parent="MV_EeXbdcHk2f9CnNYqn-110">
          <mxGeometry width="30" height="30" as="geometry" />
        </mxCell>
        <mxCell id="MV_EeXbdcHk2f9CnNYqn-112" value="Proje_no" style="shape=partialRectangle;connectable=0;fillColor=none;top=0;left=0;bottom=0;right=0;align=left;spacingLeft=6;fontStyle=5;overflow=hidden;" vertex="1" parent="MV_EeXbdcHk2f9CnNYqn-110">
          <mxGeometry x="30" width="150" height="30" as="geometry" />
        </mxCell>
        <mxCell id="MV_EeXbdcHk2f9CnNYqn-113" value="" style="shape=partialRectangle;collapsible=0;dropTarget=0;pointerEvents=0;fillColor=none;top=0;left=0;bottom=0;right=0;points=[[0,0.5],[1,0.5]];portConstraint=eastwest;" vertex="1" parent="MV_EeXbdcHk2f9CnNYqn-109">
          <mxGeometry y="60" width="180" height="30" as="geometry" />
        </mxCell>
        <mxCell id="MV_EeXbdcHk2f9CnNYqn-114" value="" style="shape=partialRectangle;connectable=0;fillColor=none;top=0;left=0;bottom=0;right=0;editable=1;overflow=hidden;" vertex="1" parent="MV_EeXbdcHk2f9CnNYqn-113">
          <mxGeometry width="30" height="30" as="geometry" />
        </mxCell>
        <mxCell id="MV_EeXbdcHk2f9CnNYqn-115" value="Row 1" style="shape=partialRectangle;connectable=0;fillColor=none;top=0;left=0;bottom=0;right=0;align=left;spacingLeft=6;overflow=hidden;" vertex="1" parent="MV_EeXbdcHk2f9CnNYqn-113">
          <mxGeometry x="30" width="150" height="30" as="geometry" />
        </mxCell>
        <mxCell id="MV_EeXbdcHk2f9CnNYqn-116" value="" style="shape=partialRectangle;collapsible=0;dropTarget=0;pointerEvents=0;fillColor=none;top=0;left=0;bottom=0;right=0;points=[[0,0.5],[1,0.5]];portConstraint=eastwest;" vertex="1" parent="MV_EeXbdcHk2f9CnNYqn-109">
          <mxGeometry y="90" width="180" height="30" as="geometry" />
        </mxCell>
        <mxCell id="MV_EeXbdcHk2f9CnNYqn-117" value="" style="shape=partialRectangle;connectable=0;fillColor=none;top=0;left=0;bottom=0;right=0;editable=1;overflow=hidden;" vertex="1" parent="MV_EeXbdcHk2f9CnNYqn-116">
          <mxGeometry width="30" height="30" as="geometry" />
        </mxCell>
        <mxCell id="MV_EeXbdcHk2f9CnNYqn-118" value="Row 2" style="shape=partialRectangle;connectable=0;fillColor=none;top=0;left=0;bottom=0;right=0;align=left;spacingLeft=6;overflow=hidden;" vertex="1" parent="MV_EeXbdcHk2f9CnNYqn-116">
          <mxGeometry x="30" width="150" height="30" as="geometry" />
        </mxCell>
        <mxCell id="MV_EeXbdcHk2f9CnNYqn-119" value="" style="shape=partialRectangle;collapsible=0;dropTarget=0;pointerEvents=0;fillColor=none;top=0;left=0;bottom=0;right=0;points=[[0,0.5],[1,0.5]];portConstraint=eastwest;" vertex="1" parent="MV_EeXbdcHk2f9CnNYqn-109">
          <mxGeometry y="120" width="180" height="30" as="geometry" />
        </mxCell>
        <mxCell id="MV_EeXbdcHk2f9CnNYqn-120" value="" style="shape=partialRectangle;connectable=0;fillColor=none;top=0;left=0;bottom=0;right=0;editable=1;overflow=hidden;" vertex="1" parent="MV_EeXbdcHk2f9CnNYqn-119">
          <mxGeometry width="30" height="30" as="geometry" />
        </mxCell>
        <mxCell id="MV_EeXbdcHk2f9CnNYqn-121" value="Row 3" style="shape=partialRectangle;connectable=0;fillColor=none;top=0;left=0;bottom=0;right=0;align=left;spacingLeft=6;overflow=hidden;" vertex="1" parent="MV_EeXbdcHk2f9CnNYqn-119">
          <mxGeometry x="30" width="150" height="30" as="geometry" />
        </mxCell>
        <mxCell id="MV_EeXbdcHk2f9CnNYqn-122" value="Organizasyon" style="shape=table;startSize=30;container=1;collapsible=1;childLayout=tableLayout;fixedRows=1;rowLines=0;fontStyle=1;align=center;resizeLast=1;" vertex="1" parent="WIyWlLk6GJQsqaUBKTNV-1">
          <mxGeometry x="4478" y="1475" width="180" height="160" as="geometry" />
        </mxCell>
        <mxCell id="MV_EeXbdcHk2f9CnNYqn-123" value="" style="shape=partialRectangle;collapsible=0;dropTarget=0;pointerEvents=0;fillColor=none;top=0;left=0;bottom=1;right=0;points=[[0,0.5],[1,0.5]];portConstraint=eastwest;" vertex="1" parent="MV_EeXbdcHk2f9CnNYqn-122">
          <mxGeometry y="30" width="180" height="30" as="geometry" />
        </mxCell>
        <mxCell id="MV_EeXbdcHk2f9CnNYqn-124" value="PK" style="shape=partialRectangle;connectable=0;fillColor=none;top=0;left=0;bottom=0;right=0;fontStyle=1;overflow=hidden;" vertex="1" parent="MV_EeXbdcHk2f9CnNYqn-123">
          <mxGeometry width="30" height="30" as="geometry" />
        </mxCell>
        <mxCell id="MV_EeXbdcHk2f9CnNYqn-125" value="Organizasyon_no" style="shape=partialRectangle;connectable=0;fillColor=none;top=0;left=0;bottom=0;right=0;align=left;spacingLeft=6;fontStyle=5;overflow=hidden;" vertex="1" parent="MV_EeXbdcHk2f9CnNYqn-123">
          <mxGeometry x="30" width="150" height="30" as="geometry" />
        </mxCell>
        <mxCell id="MV_EeXbdcHk2f9CnNYqn-126" value="" style="shape=partialRectangle;collapsible=0;dropTarget=0;pointerEvents=0;fillColor=none;top=0;left=0;bottom=0;right=0;points=[[0,0.5],[1,0.5]];portConstraint=eastwest;" vertex="1" parent="MV_EeXbdcHk2f9CnNYqn-122">
          <mxGeometry y="60" width="180" height="30" as="geometry" />
        </mxCell>
        <mxCell id="MV_EeXbdcHk2f9CnNYqn-127" value="" style="shape=partialRectangle;connectable=0;fillColor=none;top=0;left=0;bottom=0;right=0;editable=1;overflow=hidden;" vertex="1" parent="MV_EeXbdcHk2f9CnNYqn-126">
          <mxGeometry width="30" height="30" as="geometry" />
        </mxCell>
        <mxCell id="MV_EeXbdcHk2f9CnNYqn-128" value="Row 1" style="shape=partialRectangle;connectable=0;fillColor=none;top=0;left=0;bottom=0;right=0;align=left;spacingLeft=6;overflow=hidden;" vertex="1" parent="MV_EeXbdcHk2f9CnNYqn-126">
          <mxGeometry x="30" width="150" height="30" as="geometry" />
        </mxCell>
        <mxCell id="MV_EeXbdcHk2f9CnNYqn-129" value="" style="shape=partialRectangle;collapsible=0;dropTarget=0;pointerEvents=0;fillColor=none;top=0;left=0;bottom=0;right=0;points=[[0,0.5],[1,0.5]];portConstraint=eastwest;" vertex="1" parent="MV_EeXbdcHk2f9CnNYqn-122">
          <mxGeometry y="90" width="180" height="30" as="geometry" />
        </mxCell>
        <mxCell id="MV_EeXbdcHk2f9CnNYqn-130" value="" style="shape=partialRectangle;connectable=0;fillColor=none;top=0;left=0;bottom=0;right=0;editable=1;overflow=hidden;" vertex="1" parent="MV_EeXbdcHk2f9CnNYqn-129">
          <mxGeometry width="30" height="30" as="geometry" />
        </mxCell>
        <mxCell id="MV_EeXbdcHk2f9CnNYqn-131" value="Row 2" style="shape=partialRectangle;connectable=0;fillColor=none;top=0;left=0;bottom=0;right=0;align=left;spacingLeft=6;overflow=hidden;" vertex="1" parent="MV_EeXbdcHk2f9CnNYqn-129">
          <mxGeometry x="30" width="150" height="30" as="geometry" />
        </mxCell>
        <mxCell id="MV_EeXbdcHk2f9CnNYqn-132" value="" style="shape=partialRectangle;collapsible=0;dropTarget=0;pointerEvents=0;fillColor=none;top=0;left=0;bottom=0;right=0;points=[[0,0.5],[1,0.5]];portConstraint=eastwest;" vertex="1" parent="MV_EeXbdcHk2f9CnNYqn-122">
          <mxGeometry y="120" width="180" height="30" as="geometry" />
        </mxCell>
        <mxCell id="MV_EeXbdcHk2f9CnNYqn-133" value="" style="shape=partialRectangle;connectable=0;fillColor=none;top=0;left=0;bottom=0;right=0;editable=1;overflow=hidden;" vertex="1" parent="MV_EeXbdcHk2f9CnNYqn-132">
          <mxGeometry width="30" height="30" as="geometry" />
        </mxCell>
        <mxCell id="MV_EeXbdcHk2f9CnNYqn-134" value="Row 3" style="shape=partialRectangle;connectable=0;fillColor=none;top=0;left=0;bottom=0;right=0;align=left;spacingLeft=6;overflow=hidden;" vertex="1" parent="MV_EeXbdcHk2f9CnNYqn-132">
          <mxGeometry x="30" width="150" height="30" as="geometry" />
        </mxCell>
        <mxCell id="MV_EeXbdcHk2f9CnNYqn-168" style="edgeStyle=orthogonalEdgeStyle;rounded=0;orthogonalLoop=1;jettySize=auto;html=1;exitX=0.5;exitY=0;exitDx=0;exitDy=0;entryX=0;entryY=0.5;entryDx=0;entryDy=0;startArrow=ERzeroToMany;startFill=1;endArrow=ERmandOne;endFill=0;" edge="1" parent="WIyWlLk6GJQsqaUBKTNV-1" source="MV_EeXbdcHk2f9CnNYqn-153" target="MV_EeXbdcHk2f9CnNYqn-69">
          <mxGeometry relative="1" as="geometry" />
        </mxCell>
        <mxCell id="MV_EeXbdcHk2f9CnNYqn-153" value="ProjeKayıt" style="shape=table;startSize=30;container=1;collapsible=1;childLayout=tableLayout;fixedRows=1;rowLines=0;fontStyle=1;align=center;resizeLast=1;" vertex="1" parent="WIyWlLk6GJQsqaUBKTNV-1">
          <mxGeometry x="4094" y="1483" width="180" height="160" as="geometry" />
        </mxCell>
        <mxCell id="MV_EeXbdcHk2f9CnNYqn-154" value="" style="shape=partialRectangle;collapsible=0;dropTarget=0;pointerEvents=0;fillColor=none;top=0;left=0;bottom=1;right=0;points=[[0,0.5],[1,0.5]];portConstraint=eastwest;" vertex="1" parent="MV_EeXbdcHk2f9CnNYqn-153">
          <mxGeometry y="30" width="180" height="30" as="geometry" />
        </mxCell>
        <mxCell id="MV_EeXbdcHk2f9CnNYqn-155" value="PK" style="shape=partialRectangle;connectable=0;fillColor=none;top=0;left=0;bottom=0;right=0;fontStyle=1;overflow=hidden;" vertex="1" parent="MV_EeXbdcHk2f9CnNYqn-154">
          <mxGeometry width="30" height="30" as="geometry" />
        </mxCell>
        <mxCell id="MV_EeXbdcHk2f9CnNYqn-156" value="Kayıt_no" style="shape=partialRectangle;connectable=0;fillColor=none;top=0;left=0;bottom=0;right=0;align=left;spacingLeft=6;fontStyle=5;overflow=hidden;" vertex="1" parent="MV_EeXbdcHk2f9CnNYqn-154">
          <mxGeometry x="30" width="150" height="30" as="geometry" />
        </mxCell>
        <mxCell id="MV_EeXbdcHk2f9CnNYqn-157" value="" style="shape=partialRectangle;collapsible=0;dropTarget=0;pointerEvents=0;fillColor=none;top=0;left=0;bottom=0;right=0;points=[[0,0.5],[1,0.5]];portConstraint=eastwest;" vertex="1" parent="MV_EeXbdcHk2f9CnNYqn-153">
          <mxGeometry y="60" width="180" height="30" as="geometry" />
        </mxCell>
        <mxCell id="MV_EeXbdcHk2f9CnNYqn-158" value="" style="shape=partialRectangle;connectable=0;fillColor=none;top=0;left=0;bottom=0;right=0;editable=1;overflow=hidden;" vertex="1" parent="MV_EeXbdcHk2f9CnNYqn-157">
          <mxGeometry width="30" height="30" as="geometry" />
        </mxCell>
        <mxCell id="MV_EeXbdcHk2f9CnNYqn-159" value="proje_no" style="shape=partialRectangle;connectable=0;fillColor=none;top=0;left=0;bottom=0;right=0;align=left;spacingLeft=6;overflow=hidden;" vertex="1" parent="MV_EeXbdcHk2f9CnNYqn-157">
          <mxGeometry x="30" width="150" height="30" as="geometry" />
        </mxCell>
        <mxCell id="MV_EeXbdcHk2f9CnNYqn-160" value="" style="shape=partialRectangle;collapsible=0;dropTarget=0;pointerEvents=0;fillColor=none;top=0;left=0;bottom=0;right=0;points=[[0,0.5],[1,0.5]];portConstraint=eastwest;" vertex="1" parent="MV_EeXbdcHk2f9CnNYqn-153">
          <mxGeometry y="90" width="180" height="30" as="geometry" />
        </mxCell>
        <mxCell id="MV_EeXbdcHk2f9CnNYqn-161" value="" style="shape=partialRectangle;connectable=0;fillColor=none;top=0;left=0;bottom=0;right=0;editable=1;overflow=hidden;" vertex="1" parent="MV_EeXbdcHk2f9CnNYqn-160">
          <mxGeometry width="30" height="30" as="geometry" />
        </mxCell>
        <mxCell id="MV_EeXbdcHk2f9CnNYqn-162" value="calısan_no" style="shape=partialRectangle;connectable=0;fillColor=none;top=0;left=0;bottom=0;right=0;align=left;spacingLeft=6;overflow=hidden;" vertex="1" parent="MV_EeXbdcHk2f9CnNYqn-160">
          <mxGeometry x="30" width="150" height="30" as="geometry" />
        </mxCell>
        <mxCell id="MV_EeXbdcHk2f9CnNYqn-163" value="" style="shape=partialRectangle;collapsible=0;dropTarget=0;pointerEvents=0;fillColor=none;top=0;left=0;bottom=0;right=0;points=[[0,0.5],[1,0.5]];portConstraint=eastwest;" vertex="1" parent="MV_EeXbdcHk2f9CnNYqn-153">
          <mxGeometry y="120" width="180" height="30" as="geometry" />
        </mxCell>
        <mxCell id="MV_EeXbdcHk2f9CnNYqn-164" value="" style="shape=partialRectangle;connectable=0;fillColor=none;top=0;left=0;bottom=0;right=0;editable=1;overflow=hidden;" vertex="1" parent="MV_EeXbdcHk2f9CnNYqn-163">
          <mxGeometry width="30" height="30" as="geometry" />
        </mxCell>
        <mxCell id="MV_EeXbdcHk2f9CnNYqn-165" value="Row 3" style="shape=partialRectangle;connectable=0;fillColor=none;top=0;left=0;bottom=0;right=0;align=left;spacingLeft=6;overflow=hidden;" vertex="1" parent="MV_EeXbdcHk2f9CnNYqn-163">
          <mxGeometry x="30" width="150" height="30" as="geometry" />
        </mxCell>
        <mxCell id="MV_EeXbdcHk2f9CnNYqn-169" style="edgeStyle=orthogonalEdgeStyle;rounded=0;orthogonalLoop=1;jettySize=auto;html=1;exitX=1;exitY=0.5;exitDx=0;exitDy=0;entryX=0;entryY=0.5;entryDx=0;entryDy=0;startArrow=ERmandOne;startFill=0;endArrow=ERzeroToMany;endFill=1;" edge="1" parent="WIyWlLk6GJQsqaUBKTNV-1" source="MV_EeXbdcHk2f9CnNYqn-110" target="MV_EeXbdcHk2f9CnNYqn-154">
          <mxGeometry relative="1" as="geometry" />
        </mxCell>
        <mxCell id="MV_EeXbdcHk2f9CnNYqn-184" style="edgeStyle=orthogonalEdgeStyle;rounded=0;orthogonalLoop=1;jettySize=auto;html=1;exitX=0.75;exitY=1;exitDx=0;exitDy=0;entryX=1;entryY=0.5;entryDx=0;entryDy=0;startArrow=ERzeroToMany;startFill=1;endArrow=ERmandOne;endFill=0;" edge="1" parent="WIyWlLk6GJQsqaUBKTNV-1" source="MV_EeXbdcHk2f9CnNYqn-170" target="MV_EeXbdcHk2f9CnNYqn-123">
          <mxGeometry relative="1" as="geometry" />
        </mxCell>
        <mxCell id="MV_EeXbdcHk2f9CnNYqn-170" value="Organizasyon_secim" style="shape=table;startSize=30;container=1;collapsible=1;childLayout=tableLayout;fixedRows=1;rowLines=0;fontStyle=1;align=center;resizeLast=1;" vertex="1" parent="WIyWlLk6GJQsqaUBKTNV-1">
          <mxGeometry x="4610" y="1230" width="180" height="160" as="geometry" />
        </mxCell>
        <mxCell id="MV_EeXbdcHk2f9CnNYqn-171" value="" style="shape=partialRectangle;collapsible=0;dropTarget=0;pointerEvents=0;fillColor=none;top=0;left=0;bottom=1;right=0;points=[[0,0.5],[1,0.5]];portConstraint=eastwest;" vertex="1" parent="MV_EeXbdcHk2f9CnNYqn-170">
          <mxGeometry y="30" width="180" height="30" as="geometry" />
        </mxCell>
        <mxCell id="MV_EeXbdcHk2f9CnNYqn-172" value="PK" style="shape=partialRectangle;connectable=0;fillColor=none;top=0;left=0;bottom=0;right=0;fontStyle=1;overflow=hidden;" vertex="1" parent="MV_EeXbdcHk2f9CnNYqn-171">
          <mxGeometry width="30" height="30" as="geometry" />
        </mxCell>
        <mxCell id="MV_EeXbdcHk2f9CnNYqn-173" value="secim_no" style="shape=partialRectangle;connectable=0;fillColor=none;top=0;left=0;bottom=0;right=0;align=left;spacingLeft=6;fontStyle=5;overflow=hidden;" vertex="1" parent="MV_EeXbdcHk2f9CnNYqn-171">
          <mxGeometry x="30" width="150" height="30" as="geometry" />
        </mxCell>
        <mxCell id="MV_EeXbdcHk2f9CnNYqn-174" value="" style="shape=partialRectangle;collapsible=0;dropTarget=0;pointerEvents=0;fillColor=none;top=0;left=0;bottom=0;right=0;points=[[0,0.5],[1,0.5]];portConstraint=eastwest;" vertex="1" parent="MV_EeXbdcHk2f9CnNYqn-170">
          <mxGeometry y="60" width="180" height="30" as="geometry" />
        </mxCell>
        <mxCell id="MV_EeXbdcHk2f9CnNYqn-175" value="" style="shape=partialRectangle;connectable=0;fillColor=none;top=0;left=0;bottom=0;right=0;editable=1;overflow=hidden;" vertex="1" parent="MV_EeXbdcHk2f9CnNYqn-174">
          <mxGeometry width="30" height="30" as="geometry" />
        </mxCell>
        <mxCell id="MV_EeXbdcHk2f9CnNYqn-176" value="calısanİd" style="shape=partialRectangle;connectable=0;fillColor=none;top=0;left=0;bottom=0;right=0;align=left;spacingLeft=6;overflow=hidden;" vertex="1" parent="MV_EeXbdcHk2f9CnNYqn-174">
          <mxGeometry x="30" width="150" height="30" as="geometry" />
        </mxCell>
        <mxCell id="MV_EeXbdcHk2f9CnNYqn-177" value="" style="shape=partialRectangle;collapsible=0;dropTarget=0;pointerEvents=0;fillColor=none;top=0;left=0;bottom=0;right=0;points=[[0,0.5],[1,0.5]];portConstraint=eastwest;" vertex="1" parent="MV_EeXbdcHk2f9CnNYqn-170">
          <mxGeometry y="90" width="180" height="30" as="geometry" />
        </mxCell>
        <mxCell id="MV_EeXbdcHk2f9CnNYqn-178" value="" style="shape=partialRectangle;connectable=0;fillColor=none;top=0;left=0;bottom=0;right=0;editable=1;overflow=hidden;" vertex="1" parent="MV_EeXbdcHk2f9CnNYqn-177">
          <mxGeometry width="30" height="30" as="geometry" />
        </mxCell>
        <mxCell id="MV_EeXbdcHk2f9CnNYqn-179" value="Organizasyon_no" style="shape=partialRectangle;connectable=0;fillColor=none;top=0;left=0;bottom=0;right=0;align=left;spacingLeft=6;overflow=hidden;" vertex="1" parent="MV_EeXbdcHk2f9CnNYqn-177">
          <mxGeometry x="30" width="150" height="30" as="geometry" />
        </mxCell>
        <mxCell id="MV_EeXbdcHk2f9CnNYqn-180" value="" style="shape=partialRectangle;collapsible=0;dropTarget=0;pointerEvents=0;fillColor=none;top=0;left=0;bottom=0;right=0;points=[[0,0.5],[1,0.5]];portConstraint=eastwest;" vertex="1" parent="MV_EeXbdcHk2f9CnNYqn-170">
          <mxGeometry y="120" width="180" height="30" as="geometry" />
        </mxCell>
        <mxCell id="MV_EeXbdcHk2f9CnNYqn-181" value="" style="shape=partialRectangle;connectable=0;fillColor=none;top=0;left=0;bottom=0;right=0;editable=1;overflow=hidden;" vertex="1" parent="MV_EeXbdcHk2f9CnNYqn-180">
          <mxGeometry width="30" height="30" as="geometry" />
        </mxCell>
        <mxCell id="MV_EeXbdcHk2f9CnNYqn-182" value="Row 3" style="shape=partialRectangle;connectable=0;fillColor=none;top=0;left=0;bottom=0;right=0;align=left;spacingLeft=6;overflow=hidden;" vertex="1" parent="MV_EeXbdcHk2f9CnNYqn-180">
          <mxGeometry x="30" width="150" height="30" as="geometry" />
        </mxCell>
        <mxCell id="MV_EeXbdcHk2f9CnNYqn-183" style="edgeStyle=orthogonalEdgeStyle;rounded=0;orthogonalLoop=1;jettySize=auto;html=1;exitX=0;exitY=0.5;exitDx=0;exitDy=0;entryX=0.75;entryY=1;entryDx=0;entryDy=0;startArrow=ERzeroToMany;startFill=1;endArrow=ERmandOne;endFill=0;" edge="1" parent="WIyWlLk6GJQsqaUBKTNV-1" source="MV_EeXbdcHk2f9CnNYqn-174" target="MV_EeXbdcHk2f9CnNYqn-68">
          <mxGeometry relative="1" as="geometry" />
        </mxCell>
      </root>
    </mxGraphModel>
  </diagram>
</mxfile>
